<svg xmlns="http://www.w3.org/2000/svg" width="20" height="18" fill="none"><path fill="#EF90A7" d="M12.962 3.843c0-1.397-.322-2.452-.84-3.17l-.025-.04a3 3 0 0 0-.248-.288q-.026-.03-.053-.06a3 3 0 0 0-.28-.238q-.027-.021-.053-.044-.002 0-.005-.003l-1.079 1.473-.376.51L8.6.065 8.555.005 8.55 0c-.898.631-1.503 1.917-1.503 3.843 0 3.24 2.957 4.295 2.957 4.295s2.956-1.054 2.956-4.295"/><path fill="#EF90A7" d="M8.626 9.055S8.48 6.068 5.223 5.066c-1.915-.589-3.382-.45-4.296.148l-.024.014-.005.004 1.144 1.424.398.498-2.362.673-.072.02L0 7.85c.357 1.004 1.461 1.946 3.396 2.54 3.257 1.002 5.23-1.334 5.23-1.334"/><path fill="#EF90A7" d="M4.075 12.438c-1.035 1.348-1.405 2.56-1.269 3.516v.003q.015.096.035.19l.006.027q.018.076.041.15l.015.053.002.006 1.788-.591.62-.203L5.257 18c1.118-.01 2.406-.714 3.602-2.272 2.013-2.622.275-5.12.275-5.12s-3.047-.793-5.06 1.83"/><path fill="#EF90A7" d="M10.87 10.608s-1.737 2.497.275 5.12c1.196 1.558 2.484 2.262 3.603 2.272l-.042-1.792-.012-.62 2.32.767.08.026.005.002c.335-1.01.026-2.387-1.17-3.945-2.012-2.623-5.059-1.83-5.059-1.83"/><path fill="#EF90A7" d="m19.905 8.075.013-.025q.032-.07.06-.143l.02-.052.002-.006-1.815-.517-.626-.18 1.492-1.856.048-.059.003-.005c-.912-.613-2.39-.76-4.325-.166-3.257 1.002-3.402 3.99-3.402 3.99s1.973 2.336 5.23 1.334c1.673-.515 2.724-1.29 3.209-2.139l.001-.002q.05-.086.09-.174"/></svg>